<mxfile host="app.diagrams.net" modified="2024-10-28T01:51:39.272Z" agent="Mozilla/5.0 (Windows NT 10.0; Win64; x64) AppleWebKit/537.36 (KHTML, like Gecko) Chrome/130.0.0.0 Safari/537.36" etag="DUQTmd6lkZ9_v6AXM0yg" version="24.5.2" type="device">
  <diagram id="fwQpp3RQB80OJueuULL_" name="Page-1">
    <mxGraphModel dx="2193" dy="716" grid="1" gridSize="10" guides="1" tooltips="1" connect="1" arrows="1" fold="1" page="1" pageScale="1" pageWidth="827" pageHeight="1169" math="0" shadow="0">
      <root>
        <mxCell id="0" />
        <mxCell id="1" parent="0" />
        <mxCell id="vtWUlZLhgFQk392brU8j-11" style="edgeStyle=orthogonalEdgeStyle;rounded=0;orthogonalLoop=1;jettySize=auto;html=1;endArrow=none;endFill=0;" edge="1" parent="1" source="vtWUlZLhgFQk392brU8j-13" target="vtWUlZLhgFQk392brU8j-10">
          <mxGeometry relative="1" as="geometry">
            <mxPoint x="200" y="110" as="sourcePoint" />
          </mxGeometry>
        </mxCell>
        <mxCell id="vtWUlZLhgFQk392brU8j-15" value="1" style="edgeLabel;html=1;align=center;verticalAlign=middle;resizable=0;points=[];fontSize=14;" vertex="1" connectable="0" parent="vtWUlZLhgFQk392brU8j-11">
          <mxGeometry x="-0.2909" y="-1" relative="1" as="geometry">
            <mxPoint as="offset" />
          </mxGeometry>
        </mxCell>
        <mxCell id="vtWUlZLhgFQk392brU8j-12" style="edgeStyle=orthogonalEdgeStyle;rounded=0;orthogonalLoop=1;jettySize=auto;html=1;endArrow=none;endFill=0;" edge="1" parent="1" source="vtWUlZLhgFQk392brU8j-10" target="vtWUlZLhgFQk392brU8j-27">
          <mxGeometry relative="1" as="geometry">
            <mxPoint x="559.9999999999998" y="110" as="targetPoint" />
          </mxGeometry>
        </mxCell>
        <mxCell id="vtWUlZLhgFQk392brU8j-16" value="&lt;font style=&quot;font-size: 14px;&quot;&gt;*&lt;/font&gt;" style="edgeLabel;html=1;align=center;verticalAlign=middle;resizable=0;points=[];" vertex="1" connectable="0" parent="vtWUlZLhgFQk392brU8j-12">
          <mxGeometry x="-0.1167" relative="1" as="geometry">
            <mxPoint as="offset" />
          </mxGeometry>
        </mxCell>
        <mxCell id="vtWUlZLhgFQk392brU8j-10" value="Pertenece" style="shape=rhombus;perimeter=rhombusPerimeter;whiteSpace=wrap;html=1;align=center;" vertex="1" parent="1">
          <mxGeometry x="320" y="80" width="120" height="60" as="geometry" />
        </mxCell>
        <mxCell id="vtWUlZLhgFQk392brU8j-13" value="Menu" style="swimlane;childLayout=stackLayout;horizontal=1;startSize=50;horizontalStack=0;rounded=1;fontSize=14;fontStyle=0;strokeWidth=2;resizeParent=0;resizeLast=1;shadow=0;dashed=0;align=center;arcSize=4;whiteSpace=wrap;html=1;" vertex="1" parent="1">
          <mxGeometry x="50" y="65" width="160" height="90" as="geometry" />
        </mxCell>
        <mxCell id="vtWUlZLhgFQk392brU8j-14" value="+Id&lt;br&gt;+nombre" style="align=left;strokeColor=none;fillColor=none;spacingLeft=4;fontSize=12;verticalAlign=top;resizable=0;rotatable=0;part=1;html=1;" vertex="1" parent="vtWUlZLhgFQk392brU8j-13">
          <mxGeometry y="50" width="160" height="40" as="geometry" />
        </mxCell>
        <mxCell id="vtWUlZLhgFQk392brU8j-27" value="MenuItem" style="swimlane;childLayout=stackLayout;horizontal=1;startSize=50;horizontalStack=0;rounded=1;fontSize=14;fontStyle=0;strokeWidth=2;resizeParent=0;resizeLast=1;shadow=0;dashed=0;align=center;arcSize=4;whiteSpace=wrap;html=1;" vertex="1" parent="1">
          <mxGeometry x="560" y="51.25" width="160" height="117.5" as="geometry" />
        </mxCell>
        <mxCell id="vtWUlZLhgFQk392brU8j-28" value="+Id&lt;br&gt;+nombre&lt;div&gt;+precio&lt;/div&gt;&lt;div&gt;+descripcion&lt;/div&gt;" style="align=left;strokeColor=none;fillColor=none;spacingLeft=4;fontSize=12;verticalAlign=top;resizable=0;rotatable=0;part=1;html=1;" vertex="1" parent="vtWUlZLhgFQk392brU8j-27">
          <mxGeometry y="50" width="160" height="67.5" as="geometry" />
        </mxCell>
        <mxCell id="vtWUlZLhgFQk392brU8j-29" value="TipoItemMenu" style="swimlane;childLayout=stackLayout;horizontal=1;startSize=50;horizontalStack=0;rounded=1;fontSize=14;fontStyle=0;strokeWidth=2;resizeParent=0;resizeLast=1;shadow=0;dashed=0;align=center;arcSize=4;whiteSpace=wrap;html=1;" vertex="1" parent="1">
          <mxGeometry x="560" y="330" width="160" height="90" as="geometry" />
        </mxCell>
        <mxCell id="vtWUlZLhgFQk392brU8j-30" value="+Id&lt;br&gt;+nombre" style="align=left;strokeColor=none;fillColor=none;spacingLeft=4;fontSize=12;verticalAlign=top;resizable=0;rotatable=0;part=1;html=1;" vertex="1" parent="vtWUlZLhgFQk392brU8j-29">
          <mxGeometry y="50" width="160" height="40" as="geometry" />
        </mxCell>
        <mxCell id="vtWUlZLhgFQk392brU8j-31" value="Posee" style="shape=rhombus;perimeter=rhombusPerimeter;whiteSpace=wrap;html=1;align=center;" vertex="1" parent="1">
          <mxGeometry x="580" y="220" width="120" height="60" as="geometry" />
        </mxCell>
        <mxCell id="vtWUlZLhgFQk392brU8j-32" value="" style="endArrow=none;html=1;rounded=0;" edge="1" parent="1" source="vtWUlZLhgFQk392brU8j-31" target="vtWUlZLhgFQk392brU8j-27">
          <mxGeometry relative="1" as="geometry">
            <mxPoint x="360" y="260" as="sourcePoint" />
            <mxPoint x="520" y="260" as="targetPoint" />
          </mxGeometry>
        </mxCell>
        <mxCell id="vtWUlZLhgFQk392brU8j-34" value="&lt;font style=&quot;font-size: 14px;&quot;&gt;*&lt;/font&gt;" style="edgeLabel;html=1;align=center;verticalAlign=middle;resizable=0;points=[];" vertex="1" connectable="0" parent="vtWUlZLhgFQk392brU8j-32">
          <mxGeometry x="0.1452" y="1" relative="1" as="geometry">
            <mxPoint as="offset" />
          </mxGeometry>
        </mxCell>
        <mxCell id="vtWUlZLhgFQk392brU8j-35" value="" style="endArrow=none;html=1;rounded=0;" edge="1" parent="1" source="vtWUlZLhgFQk392brU8j-29" target="vtWUlZLhgFQk392brU8j-31">
          <mxGeometry relative="1" as="geometry">
            <mxPoint x="360" y="260" as="sourcePoint" />
            <mxPoint x="520" y="260" as="targetPoint" />
          </mxGeometry>
        </mxCell>
        <mxCell id="vtWUlZLhgFQk392brU8j-36" value="&lt;font style=&quot;font-size: 14px;&quot;&gt;1&lt;/font&gt;" style="edgeLabel;html=1;align=center;verticalAlign=middle;resizable=0;points=[];" vertex="1" connectable="0" parent="vtWUlZLhgFQk392brU8j-35">
          <mxGeometry x="-0.0331" y="1" relative="1" as="geometry">
            <mxPoint as="offset" />
          </mxGeometry>
        </mxCell>
        <mxCell id="vtWUlZLhgFQk392brU8j-40" value="Mesa" style="swimlane;childLayout=stackLayout;horizontal=1;startSize=50;horizontalStack=0;rounded=1;fontSize=14;fontStyle=0;strokeWidth=2;resizeParent=0;resizeLast=1;shadow=0;dashed=0;align=center;arcSize=4;whiteSpace=wrap;html=1;" vertex="1" parent="1">
          <mxGeometry x="-160" y="400" width="160" height="90" as="geometry" />
        </mxCell>
        <mxCell id="vtWUlZLhgFQk392brU8j-41" value="+Id&lt;br&gt;+numero" style="align=left;strokeColor=none;fillColor=none;spacingLeft=4;fontSize=12;verticalAlign=top;resizable=0;rotatable=0;part=1;html=1;" vertex="1" parent="vtWUlZLhgFQk392brU8j-40">
          <mxGeometry y="50" width="160" height="40" as="geometry" />
        </mxCell>
        <mxCell id="vtWUlZLhgFQk392brU8j-42" value="Cliente" style="swimlane;childLayout=stackLayout;horizontal=1;startSize=50;horizontalStack=0;rounded=1;fontSize=14;fontStyle=0;strokeWidth=2;resizeParent=0;resizeLast=1;shadow=0;dashed=0;align=center;arcSize=4;whiteSpace=wrap;html=1;" vertex="1" parent="1">
          <mxGeometry x="290" y="395" width="160" height="110" as="geometry" />
        </mxCell>
        <mxCell id="vtWUlZLhgFQk392brU8j-43" value="+Id&lt;br&gt;+nombre&lt;div&gt;+identificacion&lt;/div&gt;" style="align=left;strokeColor=none;fillColor=none;spacingLeft=4;fontSize=12;verticalAlign=top;resizable=0;rotatable=0;part=1;html=1;" vertex="1" parent="vtWUlZLhgFQk392brU8j-42">
          <mxGeometry y="50" width="160" height="60" as="geometry" />
        </mxCell>
        <mxCell id="vtWUlZLhgFQk392brU8j-44" value="Mesero" style="swimlane;childLayout=stackLayout;horizontal=1;startSize=50;horizontalStack=0;rounded=1;fontSize=14;fontStyle=0;strokeWidth=2;resizeParent=0;resizeLast=1;shadow=0;dashed=0;align=center;arcSize=4;whiteSpace=wrap;html=1;" vertex="1" parent="1">
          <mxGeometry x="-160" y="65" width="160" height="110" as="geometry" />
        </mxCell>
        <mxCell id="vtWUlZLhgFQk392brU8j-45" value="+Id&lt;br&gt;+nombre&lt;div&gt;+identificacion&lt;/div&gt;" style="align=left;strokeColor=none;fillColor=none;spacingLeft=4;fontSize=12;verticalAlign=top;resizable=0;rotatable=0;part=1;html=1;" vertex="1" parent="vtWUlZLhgFQk392brU8j-44">
          <mxGeometry y="50" width="160" height="60" as="geometry" />
        </mxCell>
        <mxCell id="vtWUlZLhgFQk392brU8j-46" value="Pedido" style="swimlane;childLayout=stackLayout;horizontal=1;startSize=50;horizontalStack=0;rounded=1;fontSize=14;fontStyle=0;strokeWidth=2;resizeParent=0;resizeLast=1;shadow=0;dashed=0;align=center;arcSize=4;whiteSpace=wrap;html=1;" vertex="1" parent="1">
          <mxGeometry x="210" y="205" width="160" height="105" as="geometry" />
        </mxCell>
        <mxCell id="vtWUlZLhgFQk392brU8j-47" value="+Id&lt;br&gt;+fecha&lt;div&gt;+total&lt;/div&gt;" style="align=left;strokeColor=none;fillColor=none;spacingLeft=4;fontSize=12;verticalAlign=top;resizable=0;rotatable=0;part=1;html=1;" vertex="1" parent="vtWUlZLhgFQk392brU8j-46">
          <mxGeometry y="50" width="160" height="55" as="geometry" />
        </mxCell>
        <mxCell id="vtWUlZLhgFQk392brU8j-49" value="Posee" style="shape=rhombus;perimeter=rhombusPerimeter;whiteSpace=wrap;html=1;align=center;" vertex="1" parent="1">
          <mxGeometry x="414" y="220" width="120" height="60" as="geometry" />
        </mxCell>
        <mxCell id="vtWUlZLhgFQk392brU8j-50" value="" style="endArrow=none;html=1;rounded=0;" edge="1" parent="1" source="vtWUlZLhgFQk392brU8j-49" target="vtWUlZLhgFQk392brU8j-27">
          <mxGeometry relative="1" as="geometry">
            <mxPoint x="380" y="370" as="sourcePoint" />
            <mxPoint x="540" y="370" as="targetPoint" />
          </mxGeometry>
        </mxCell>
        <mxCell id="vtWUlZLhgFQk392brU8j-51" value="&lt;font style=&quot;font-size: 14px;&quot;&gt;*&lt;/font&gt;" style="edgeLabel;html=1;align=center;verticalAlign=middle;resizable=0;points=[];" vertex="1" connectable="0" parent="vtWUlZLhgFQk392brU8j-50">
          <mxGeometry x="-0.0059" y="-2" relative="1" as="geometry">
            <mxPoint y="-1" as="offset" />
          </mxGeometry>
        </mxCell>
        <mxCell id="vtWUlZLhgFQk392brU8j-52" value="" style="endArrow=none;html=1;rounded=0;" edge="1" parent="1" source="vtWUlZLhgFQk392brU8j-46" target="vtWUlZLhgFQk392brU8j-49">
          <mxGeometry relative="1" as="geometry">
            <mxPoint x="380" y="360" as="sourcePoint" />
            <mxPoint x="540" y="360" as="targetPoint" />
          </mxGeometry>
        </mxCell>
        <mxCell id="vtWUlZLhgFQk392brU8j-53" value="&lt;font style=&quot;font-size: 14px;&quot;&gt;1&lt;/font&gt;" style="edgeLabel;html=1;align=center;verticalAlign=middle;resizable=0;points=[];" vertex="1" connectable="0" parent="vtWUlZLhgFQk392brU8j-52">
          <mxGeometry x="0.0972" y="-1" relative="1" as="geometry">
            <mxPoint as="offset" />
          </mxGeometry>
        </mxCell>
        <mxCell id="vtWUlZLhgFQk392brU8j-58" value="Solicita" style="shape=rhombus;perimeter=rhombusPerimeter;whiteSpace=wrap;html=1;align=center;" vertex="1" parent="1">
          <mxGeometry x="60" y="310" width="120" height="60" as="geometry" />
        </mxCell>
        <mxCell id="vtWUlZLhgFQk392brU8j-59" value="" style="endArrow=none;html=1;rounded=0;" edge="1" parent="1" source="vtWUlZLhgFQk392brU8j-46" target="vtWUlZLhgFQk392brU8j-58">
          <mxGeometry relative="1" as="geometry">
            <mxPoint x="180" y="360" as="sourcePoint" />
            <mxPoint x="340" y="360" as="targetPoint" />
          </mxGeometry>
        </mxCell>
        <mxCell id="vtWUlZLhgFQk392brU8j-69" value="&lt;font style=&quot;font-size: 14px;&quot;&gt;1&lt;/font&gt;" style="edgeLabel;html=1;align=center;verticalAlign=middle;resizable=0;points=[];" vertex="1" connectable="0" parent="vtWUlZLhgFQk392brU8j-59">
          <mxGeometry x="-0.0945" y="1" relative="1" as="geometry">
            <mxPoint as="offset" />
          </mxGeometry>
        </mxCell>
        <mxCell id="vtWUlZLhgFQk392brU8j-60" value="" style="endArrow=none;html=1;rounded=0;" edge="1" parent="1" source="vtWUlZLhgFQk392brU8j-58" target="vtWUlZLhgFQk392brU8j-40">
          <mxGeometry relative="1" as="geometry">
            <mxPoint x="180" y="430" as="sourcePoint" />
            <mxPoint x="340" y="430" as="targetPoint" />
          </mxGeometry>
        </mxCell>
        <mxCell id="vtWUlZLhgFQk392brU8j-70" value="&lt;font style=&quot;font-size: 14px;&quot;&gt;1&lt;/font&gt;" style="edgeLabel;html=1;align=center;verticalAlign=middle;resizable=0;points=[];" vertex="1" connectable="0" parent="vtWUlZLhgFQk392brU8j-60">
          <mxGeometry x="-0.1381" y="1" relative="1" as="geometry">
            <mxPoint as="offset" />
          </mxGeometry>
        </mxCell>
        <mxCell id="vtWUlZLhgFQk392brU8j-61" value="Posee" style="shape=rhombus;perimeter=rhombusPerimeter;whiteSpace=wrap;html=1;align=center;" vertex="1" parent="1">
          <mxGeometry x="90" y="420" width="120" height="60" as="geometry" />
        </mxCell>
        <mxCell id="vtWUlZLhgFQk392brU8j-62" value="" style="endArrow=none;html=1;rounded=0;" edge="1" parent="1" source="vtWUlZLhgFQk392brU8j-40" target="vtWUlZLhgFQk392brU8j-61">
          <mxGeometry relative="1" as="geometry">
            <mxPoint x="180" y="430" as="sourcePoint" />
            <mxPoint x="340" y="430" as="targetPoint" />
          </mxGeometry>
        </mxCell>
        <mxCell id="vtWUlZLhgFQk392brU8j-71" value="&lt;font style=&quot;font-size: 14px;&quot;&gt;1&lt;/font&gt;" style="edgeLabel;html=1;align=center;verticalAlign=middle;resizable=0;points=[];" vertex="1" connectable="0" parent="vtWUlZLhgFQk392brU8j-62">
          <mxGeometry x="0.0457" y="-1" relative="1" as="geometry">
            <mxPoint as="offset" />
          </mxGeometry>
        </mxCell>
        <mxCell id="vtWUlZLhgFQk392brU8j-63" value="" style="endArrow=none;html=1;rounded=0;" edge="1" parent="1" source="vtWUlZLhgFQk392brU8j-61" target="vtWUlZLhgFQk392brU8j-42">
          <mxGeometry relative="1" as="geometry">
            <mxPoint x="180" y="430" as="sourcePoint" />
            <mxPoint x="340" y="430" as="targetPoint" />
          </mxGeometry>
        </mxCell>
        <mxCell id="vtWUlZLhgFQk392brU8j-72" value="&lt;font style=&quot;font-size: 14px;&quot;&gt;1&lt;/font&gt;" style="edgeLabel;html=1;align=center;verticalAlign=middle;resizable=0;points=[];" vertex="1" connectable="0" parent="vtWUlZLhgFQk392brU8j-63">
          <mxGeometry x="-0.0686" y="-1" relative="1" as="geometry">
            <mxPoint as="offset" />
          </mxGeometry>
        </mxCell>
        <mxCell id="vtWUlZLhgFQk392brU8j-64" value="Atiende" style="shape=rhombus;perimeter=rhombusPerimeter;whiteSpace=wrap;html=1;align=center;" vertex="1" parent="1">
          <mxGeometry x="-140" y="280" width="120" height="60" as="geometry" />
        </mxCell>
        <mxCell id="vtWUlZLhgFQk392brU8j-65" value="" style="endArrow=none;html=1;rounded=0;" edge="1" parent="1" source="vtWUlZLhgFQk392brU8j-44" target="vtWUlZLhgFQk392brU8j-64">
          <mxGeometry relative="1" as="geometry">
            <mxPoint x="-40" y="430" as="sourcePoint" />
            <mxPoint x="120" y="430" as="targetPoint" />
          </mxGeometry>
        </mxCell>
        <mxCell id="vtWUlZLhgFQk392brU8j-67" value="&lt;font style=&quot;font-size: 14px;&quot;&gt;1&lt;/font&gt;" style="edgeLabel;html=1;align=center;verticalAlign=middle;resizable=0;points=[];" vertex="1" connectable="0" parent="vtWUlZLhgFQk392brU8j-65">
          <mxGeometry x="-0.1771" relative="1" as="geometry">
            <mxPoint as="offset" />
          </mxGeometry>
        </mxCell>
        <mxCell id="vtWUlZLhgFQk392brU8j-66" value="" style="endArrow=none;html=1;rounded=0;" edge="1" parent="1" source="vtWUlZLhgFQk392brU8j-64" target="vtWUlZLhgFQk392brU8j-40">
          <mxGeometry relative="1" as="geometry">
            <mxPoint x="-40" y="430" as="sourcePoint" />
            <mxPoint x="120" y="430" as="targetPoint" />
          </mxGeometry>
        </mxCell>
        <mxCell id="vtWUlZLhgFQk392brU8j-68" value="&lt;font style=&quot;font-size: 14px;&quot;&gt;*&lt;/font&gt;" style="edgeLabel;html=1;align=center;verticalAlign=middle;resizable=0;points=[];" vertex="1" connectable="0" parent="vtWUlZLhgFQk392brU8j-66">
          <mxGeometry x="-0.2531" y="-2" relative="1" as="geometry">
            <mxPoint as="offset" />
          </mxGeometry>
        </mxCell>
      </root>
    </mxGraphModel>
  </diagram>
</mxfile>
